<?xml version="1.0" standalone="no"?>
<!DOCTYPE svg PUBLIC "-//W3C//DTD SVG 20010904//EN"
 "http://www.w3.org/TR/2001/REC-SVG-20010904/DTD/svg10.dtd">
<svg version="1.0" xmlns="http://www.w3.org/2000/svg"
 width="1080.000000pt" height="1080.000000pt" viewBox="0 0 1080.000000 1080.000000"
 preserveAspectRatio="xMidYMid meet">
<metadata>
Created by potrace 1.14, written by Peter Selinger 2001-2017
</metadata>
<g transform="translate(0.000000,1080.000000) scale(0.100000,-0.100000)"
fill="#000000" stroke="none">
<path d="M6717 9224 c-4 -4 -21 -8 -39 -10 -43 -4 -67 -10 -99 -22 -15 -6 -30
-8 -33 -5 -3 4 -6 2 -6 -4 0 -5 -7 -10 -15 -11 -8 -1 -22 -3 -30 -4 -8 -1 -15
-5 -15 -10 0 -5 -4 -7 -9 -4 -5 4 -11 1 -13 -4 -2 -6 -11 -12 -20 -13 -51 -8
-298 -211 -298 -245 0 -7 -3 -12 -7 -12 -5 0 -16 -15 -27 -33 -89 -153 -123
-250 -132 -377 -6 -76 -11 -96 -26 -98 -7 0 -29 -3 -48 -6 -19 -3 -57 -8 -85
-11 -27 -3 -66 -9 -85 -11 -19 -3 -50 -6 -67 -6 -18 0 -33 -4 -33 -7 0 -4 -15
-6 -32 -6 -18 1 -37 -1 -43 -4 -5 -2 -21 -6 -35 -7 -86 -8 -185 -21 -185 -24
0 -1 -13 -3 -30 -5 -16 -1 -55 -6 -85 -10 -30 -4 -71 -9 -90 -11 -19 -3 -48
-6 -65 -8 -16 -2 -30 -5 -30 -6 0 -1 -13 -3 -30 -5 -28 -2 -68 -7 -170 -20
-22 -3 -52 -8 -66 -11 -15 -3 -51 -7 -80 -10 -83 -8 -114 -12 -114 -14 0 -1
-13 -3 -30 -5 -16 -1 -48 -5 -70 -9 -68 -10 -128 -18 -165 -21 -19 -2 -35 -4
-35 -5 0 -2 -16 -4 -35 -6 -19 -2 -48 -6 -65 -8 -43 -7 -135 -18 -170 -21 -16
-2 -30 -4 -30 -5 0 -1 -11 -3 -25 -5 -37 -4 -123 -15 -140 -18 -8 -1 -21 -6
-27 -10 -8 -5 -13 -3 -13 3 0 6 -5 8 -10 5 -6 -4 -24 -8 -41 -10 -16 -2 -49
-7 -72 -11 -23 -4 -59 -7 -79 -8 -21 -1 -38 -5 -38 -10 0 -4 -7 -5 -16 -2 -8
3 -23 2 -32 -3 -24 -13 -44 5 -76 68 -59 118 -202 277 -282 313 -13 6 -24 14
-24 18 0 3 -16 12 -35 20 -19 8 -35 18 -35 22 0 5 -4 7 -9 3 -5 -3 -15 1 -23
8 -7 7 -17 14 -23 15 -9 1 -26 6 -57 17 -16 5 -23 7 -33 9 -5 1 -22 5 -36 10
-14 4 -39 8 -55 10 -16 1 -34 4 -39 7 -12 6 -191 3 -220 -4 -11 -2 -39 -8 -62
-12 -24 -4 -45 -11 -49 -16 -3 -5 -10 -7 -15 -3 -5 3 -15 2 -22 -3 -7 -5 -40
-20 -74 -33 -35 -14 -63 -28 -63 -32 0 -5 -5 -8 -12 -8 -35 0 -213 -163 -268
-245 -19 -27 -37 -51 -42 -53 -4 -2 -8 -8 -8 -13 0 -6 -12 -35 -26 -65 -196
-415 -11 -915 415 -1118 30 -14 62 -26 71 -26 9 0 20 -3 24 -7 4 -5 11 -8 14
-8 4 -1 30 -7 58 -14 28 -7 80 -14 115 -16 35 -2 66 -4 69 -5 3 -2 8 -2 12 -1
4 0 5 -378 2 -842 -3 -463 -7 -1006 -8 -1206 -2 -411 8 -367 -85 -372 -25 -1
-50 -5 -56 -8 -5 -3 -21 -6 -35 -7 -14 -1 -25 -2 -25 -3 0 -2 -7 -4 -50 -15
-50 -11 -135 -49 -135 -59 0 -5 -4 -6 -8 -3 -5 3 -25 -6 -45 -19 -20 -14 -38
-25 -41 -25 -10 0 -149 -120 -155 -133 -1 -4 -11 -16 -20 -25 -18 -17 -57 -71
-78 -107 -16 -27 -57 -109 -58 -115 0 -3 -3 -9 -6 -15 -6 -10 -17 -49 -19 -70
-1 -5 -6 -16 -12 -23 -6 -6 -8 -12 -5 -12 3 0 1 -15 -4 -32 -23 -79 -20 -263
5 -363 2 -5 6 -23 10 -40 13 -50 99 -233 115 -245 4 -3 14 -15 22 -27 24 -35
107 -123 116 -123 5 0 14 -9 21 -20 7 -11 19 -20 28 -20 8 0 12 -4 9 -10 -3
-5 -2 -10 3 -10 5 0 37 -17 72 -37 35 -21 65 -37 67 -35 2 2 16 -4 31 -12 34
-18 65 -30 75 -28 4 1 7 -2 7 -8 0 -5 7 -7 15 -4 8 3 20 2 27 -2 7 -5 22 -10
33 -11 63 -9 75 -12 84 -18 6 -3 11 -1 11 5 0 6 5 8 11 5 14 -9 119 -14 119
-6 0 3 17 6 38 7 51 1 132 18 187 39 126 48 254 131 324 209 14 16 34 37 43
47 9 10 24 29 33 43 17 26 55 36 55 15 0 -6 6 -9 14 -6 7 3 19 0 25 -6 7 -7
15 -12 19 -13 4 0 25 -9 47 -19 22 -10 43 -18 48 -17 4 1 7 -2 7 -7 0 -7 11
-12 60 -26 3 -1 29 -13 59 -28 30 -15 61 -27 68 -27 7 0 13 -4 13 -10 0 -5 5
-10 10 -10 6 0 61 -23 123 -51 61 -28 117 -52 122 -54 6 -2 20 -6 33 -10 12
-4 22 -11 22 -16 0 -5 9 -9 20 -9 11 0 20 -4 20 -8 0 -5 6 -9 13 -9 11 0 54
-19 192 -83 22 -10 47 -20 55 -22 8 -2 20 -9 25 -16 6 -7 15 -12 20 -11 6 1
40 -12 77 -29 36 -18 71 -32 77 -32 6 0 11 -5 11 -10 0 -6 3 -9 8 -8 9 2 35
-9 123 -51 36 -17 71 -31 77 -31 7 0 12 -5 12 -10 0 -6 6 -10 13 -9 6 2 40
-11 74 -28 34 -17 64 -28 67 -25 4 3 6 0 6 -6 0 -7 3 -11 8 -10 4 1 30 -9 57
-21 28 -13 75 -35 105 -48 30 -14 71 -33 90 -42 19 -8 37 -16 40 -17 3 0 32
-14 65 -29 33 -16 62 -29 65 -30 28 -6 130 -61 130 -70 0 -36 99 -232 140
-276 106 -115 118 -125 180 -169 19 -13 38 -29 42 -35 4 -5 8 -6 8 -2 0 5 14
-1 30 -13 17 -12 30 -18 30 -13 0 4 4 3 8 -4 4 -6 43 -24 87 -39 76 -25 96
-30 155 -39 14 -1 25 -4 25 -5 0 -1 46 -3 103 -3 56 -1 102 1 102 4 0 4 10 5
23 5 12 -1 27 0 32 3 6 3 15 6 20 6 19 1 100 26 133 41 81 36 107 48 112 53 3
4 17 12 32 20 42 22 151 120 201 181 40 48 124 195 133 233 1 4 2 8 4 10 1 1
3 9 5 17 2 8 11 44 20 80 18 68 24 235 12 322 -7 45 -41 157 -67 223 -12 29
-10 35 41 110 29 44 58 83 64 87 6 5 6 8 0 8 -7 0 -7 3 0 8 6 4 37 48 70 97
32 50 63 92 67 93 4 2 8 8 8 13 0 11 42 72 53 77 4 2 7 9 7 16 0 7 9 22 20 34
12 12 17 22 13 22 -4 0 -3 4 3 8 10 6 51 65 79 112 19 32 70 105 82 118 6 6
15 21 18 32 3 11 10 20 15 20 5 0 11 8 15 19 5 16 16 32 55 79 6 6 9 12 6 12
-2 0 45 73 105 161 60 89 109 164 109 168 0 3 12 20 28 36 15 16 26 31 24 32
-4 5 52 87 68 100 8 6 17 8 20 5 7 -9 28 -12 140 -16 52 -2 100 -1 105 3 6 3
15 6 20 7 41 8 64 14 88 23 15 6 27 8 27 6 0 -6 152 72 195 100 17 11 36 28
43 37 7 10 17 18 23 18 17 0 127 126 170 195 42 66 92 188 105 250 2 11 6 31
10 45 12 52 12 230 -1 296 -40 211 -149 393 -310 516 -16 12 -36 28 -42 34 -7
7 -26 18 -43 26 -16 7 -30 16 -30 20 0 5 -9 8 -20 8 -11 0 -20 5 -20 11 0 5
-4 7 -10 4 -5 -3 -10 -1 -10 6 0 7 -3 9 -7 6 -3 -4 -11 -3 -17 2 -11 9 -110
39 -156 47 -14 2 -34 6 -45 8 -11 3 -24 5 -28 5 -8 1 -135 260 -158 324 -7 20
-17 37 -21 37 -4 0 -8 6 -8 14 0 7 -15 43 -34 79 -18 37 -31 69 -28 72 3 3 0
5 -6 5 -7 0 -11 3 -10 8 2 4 -8 30 -21 57 -27 57 -103 217 -151 320 -18 39
-53 113 -78 165 -24 52 -62 133 -84 180 -22 46 -51 109 -66 140 -15 30 -27 57
-27 60 -1 3 -19 41 -39 85 -21 44 -60 127 -87 183 -27 57 -49 109 -49 116 0 7
10 21 23 33 96 86 187 240 230 388 28 101 30 320 2 425 -21 81 -101 251 -134
287 -12 12 -21 25 -21 29 0 9 -131 134 -160 154 -12 8 -29 21 -36 28 -8 7 -14
11 -14 7 0 -3 -12 2 -27 13 -35 24 -106 57 -115 54 -5 -1 -8 3 -8 8 0 6 -3 9
-7 9 -5 -1 -10 0 -13 1 -3 1 -13 3 -22 6 -10 2 -26 6 -35 8 -10 3 -18 5 -18 6
0 2 -36 9 -65 13 -14 2 -31 6 -37 10 -6 4 -14 1 -16 -5 -4 -10 -6 -10 -6 0 -1
8 -25 12 -84 12 -46 0 -87 -3 -90 -6z m158 -178 c33 -2 60 -5 60 -6 0 -3 39
-11 55 -12 21 0 179 -76 213 -102 234 -179 331 -459 256 -740 -14 -51 -58
-141 -96 -197 -51 -73 -173 -188 -200 -189 -7 0 -13 -4 -13 -10 0 -5 -3 -9 -7
-8 -5 1 -27 -8 -50 -20 -24 -12 -43 -20 -43 -16 0 4 -6 2 -13 -4 -7 -6 -28
-14 -47 -17 -18 -3 -37 -8 -42 -11 -5 -3 -30 -7 -56 -9 -26 -2 -49 -5 -52 -5
-10 -4 -145 6 -145 10 0 1 -11 3 -25 5 -45 6 -72 14 -86 26 -8 6 -14 8 -14 5
0 -4 -10 -1 -22 6 -13 7 -26 12 -29 13 -18 1 -136 83 -177 123 -61 60 -113
127 -105 136 3 3 2 6 -4 6 -6 0 -22 26 -36 58 -99 221 -79 475 54 668 70 102
208 216 284 234 6 1 27 11 48 21 20 11 37 17 37 14 0 -4 6 -3 13 2 13 8 11 8
86 17 30 4 57 8 59 10 2 2 11 2 20 0 9 -2 44 -6 77 -8z m-4157 -652 c61 -3
103 -9 110 -14 1 -2 7 -4 12 -5 6 -1 12 -4 15 -5 3 -1 8 -3 13 -5 4 -1 21 -5
37 -10 17 -4 32 -12 35 -16 3 -4 12 -9 20 -11 48 -10 175 -114 245 -199 39
-47 93 -165 114 -249 21 -84 24 -225 7 -303 -27 -119 -128 -296 -198 -343 -15
-10 -24 -22 -22 -26 3 -4 1 -8 -5 -8 -5 0 -23 -11 -39 -25 -16 -13 -32 -22
-36 -18 -3 3 -6 1 -6 -5 0 -7 -7 -12 -15 -12 -8 0 -15 -4 -15 -8 0 -9 -70 -37
-82 -34 -5 1 -8 -3 -8 -10 0 -6 -3 -8 -7 -5 -3 4 -12 2 -20 -4 -7 -6 -13 -9
-13 -5 0 3 -12 1 -26 -4 -46 -18 -216 -33 -239 -21 -5 3 -19 6 -30 6 -31 2
-99 17 -110 25 -5 3 -29 12 -52 20 -24 7 -43 17 -43 22 0 4 -8 8 -18 8 -11 0
-27 9 -37 20 -10 11 -23 20 -29 20 -12 0 -95 77 -139 128 -51 60 -115 191
-133 271 -14 63 -18 151 -11 216 7 67 14 110 17 110 1 0 3 11 6 24 2 14 9 30
15 38 6 7 9 13 5 13 -8 0 31 74 67 130 45 67 156 171 212 200 28 14 52 28 55
32 5 6 87 37 115 43 6 1 21 5 35 8 14 4 42 9 64 11 21 3 40 7 43 10 3 3 10 3
15 0 5 -3 39 -7 76 -10z m3258 -182 c6 -4 16 -29 23 -57 16 -60 89 -215 102
-215 5 0 9 -5 9 -12 0 -6 7 -19 16 -29 17 -19 23 -9 -261 -385 -27 -36 -57
-76 -65 -88 -45 -65 -134 -181 -142 -184 -4 -2 -8 -8 -8 -12 0 -5 -30 -49 -67
-98 -38 -49 -77 -101 -88 -116 -55 -76 -98 -133 -116 -156 -11 -14 -40 -52
-65 -85 -25 -33 -50 -67 -57 -75 -7 -8 -23 -32 -37 -53 -14 -20 -29 -37 -33
-37 -5 0 -5 -4 -2 -10 3 -5 2 -10 -3 -10 -6 0 -24 -22 -42 -49 -17 -28 -35
-51 -39 -53 -4 -2 -22 -25 -41 -53 -18 -27 -36 -52 -40 -55 -3 -3 -22 -27 -41
-54 -18 -28 -41 -57 -49 -66 -8 -9 -22 -27 -30 -39 -16 -24 -201 -273 -226
-303 -7 -10 -37 -50 -66 -90 -29 -40 -55 -75 -58 -78 -3 -3 -30 -39 -60 -80
-30 -41 -58 -76 -62 -78 -5 -2 -8 -8 -8 -14 0 -6 -10 -19 -22 -29 -11 -11 -18
-19 -14 -19 4 0 2 -6 -4 -12 -41 -49 -54 -66 -67 -85 -9 -13 -18 -23 -22 -23
-4 0 -18 19 -30 43 -34 63 -55 101 -61 107 -3 3 -13 21 -24 40 -40 75 -70 126
-88 153 -11 15 -16 27 -11 27 4 0 3 4 -3 8 -6 4 -28 39 -49 77 -20 39 -41 75
-45 80 -16 21 -150 259 -150 267 0 4 -3 8 -8 8 -4 0 -15 17 -25 38 -26 54 -51
97 -59 100 -5 2 -8 9 -8 16 0 8 -9 25 -21 40 -11 14 -18 26 -14 26 3 0 1 6 -5
13 -12 14 -360 617 -360 624 0 3 -9 16 -20 30 -11 14 -20 31 -20 38 0 6 20 38
45 71 24 32 45 64 45 71 0 6 4 13 8 15 19 8 80 176 98 268 9 51 12 220 4 256
-9 38 -2 50 28 51 12 0 23 2 25 3 1 1 13 3 27 4 24 3 101 13 165 22 17 3 48 7
70 9 22 2 56 7 75 11 19 4 50 7 68 8 17 0 32 3 32 6 0 3 15 6 33 7 17 1 48 4
67 7 19 2 58 7 85 11 28 3 61 8 75 11 14 3 39 7 55 9 17 2 53 6 80 10 28 4 64
8 80 11 41 5 104 13 140 19 17 3 48 7 70 9 22 3 53 8 68 11 16 3 45 8 65 10
21 2 57 7 82 10 25 4 59 8 75 10 17 2 30 4 30 5 0 1 11 3 25 4 54 6 137 17
169 23 18 3 50 7 70 8 20 2 36 4 36 5 0 3 28 7 86 14 30 4 70 9 89 12 19 3 53
7 75 9 22 2 40 4 40 5 0 1 11 3 25 5 14 1 43 5 65 8 129 19 195 29 234 33 25
2 47 7 50 9 6 7 14 6 27 -3z m300 -482 c8 0 17 -7 20 -15 4 -8 10 -15 15 -15
6 0 20 -9 32 -21 27 -25 171 -95 215 -104 17 -4 32 -11 32 -16 0 -6 4 -7 10
-4 5 3 18 2 27 -4 16 -8 17 -37 14 -363 -1 -194 -4 -652 -6 -1018 -2 -366 -4
-866 -6 -1112 l-2 -448 -942 0 -942 0 -11 23 c-6 12 -29 54 -52 92 -22 39 -46
81 -53 95 -6 14 -16 30 -20 35 -4 6 -57 96 -116 200 l-109 190 21 30 c12 17
25 32 29 33 4 2 8 8 8 13 0 8 7 17 55 70 8 9 15 19 15 23 0 5 11 22 25 40 54
66 60 74 77 97 50 69 131 178 155 208 16 18 32 41 37 50 5 9 12 18 16 21 3 3
28 35 55 73 27 37 52 67 57 67 4 0 7 3 6 8 -2 6 74 115 92 132 3 3 57 75 120
160 63 85 117 157 120 160 4 3 11 12 16 21 5 9 21 32 36 50 15 19 62 81 105
139 42 58 81 110 85 115 5 6 29 37 54 70 25 33 50 67 57 75 7 8 23 32 37 53
14 20 28 37 33 37 4 0 7 6 7 14 0 8 4 16 8 18 5 2 28 30 52 63 24 33 48 65 52
70 17 22 94 124 113 150 11 15 28 36 37 46 9 9 14 20 11 23 -3 3 2 8 11 12 9
3 16 10 16 16 0 5 6 15 13 22 6 8 64 83 127 168 63 85 117 151 118 146 2 -4
10 -8 18 -8z m982 -142 c37 -78 157 -334 212 -453 30 -66 75 -161 140 -300 52
-111 99 -211 146 -312 57 -122 108 -231 149 -318 21 -44 39 -82 40 -85 0 -3
22 -50 48 -104 61 -127 66 -147 38 -141 -11 2 -23 -1 -26 -6 -4 -5 -11 -7 -16
-4 -5 4 -9 2 -9 -3 0 -5 -6 -9 -13 -9 -19 0 -157 -65 -157 -73 0 -4 -11 -11
-25 -14 -14 -4 -25 -11 -25 -16 0 -6 -5 -10 -10 -10 -6 0 -21 -10 -34 -22 -13
-13 -36 -35 -52 -49 -122 -108 -216 -287 -252 -474 -10 -55 -6 -249 7 -305 37
-163 121 -314 236 -425 87 -84 89 -85 157 -126 29 -18 54 -33 56 -34 5 -4 -33
-65 -40 -65 -5 0 -8 -4 -8 -9 0 -6 -100 -160 -170 -261 -6 -8 -46 -69 -90
-135 -44 -66 -83 -125 -87 -130 -4 -6 -30 -44 -58 -85 -27 -41 -53 -77 -56
-80 -3 -3 -14 -20 -23 -38 -9 -18 -25 -41 -34 -51 -9 -10 -26 -33 -37 -51 -11
-19 -25 -41 -30 -50 -42 -64 -50 -76 -55 -80 -3 -3 -21 -30 -40 -60 -19 -30
-39 -60 -45 -66 -5 -6 -21 -30 -35 -54 -14 -23 -33 -51 -42 -61 -9 -10 -24
-32 -33 -49 l-16 -30 -32 37 c-33 39 -86 92 -129 129 l-24 20 2 213 c1 145 5
216 12 223 9 9 12 9 12 -1 0 -7 5 -9 12 -5 14 9 103 8 118 -1 6 -3 10 -3 10 2
0 9 124 8 147 -1 7 -3 13 -2 13 2 0 4 39 5 86 3 l86 -3 -18 28 c-10 16 -87
131 -171 256 -84 125 -153 231 -153 237 0 8 102 165 166 256 8 11 50 74 95
140 l80 120 -244 3 -244 2 2 213 c1 116 3 214 5 217 1 3 1 10 0 15 -9 29 -4
241 5 247 7 5 7 8 0 8 -12 0 -11 162 1 181 4 7 3 10 -2 7 -5 -4 -9 11 -9 33 0
21 4 39 8 39 5 0 5 5 2 11 -4 5 -6 76 -6 157 1 81 3 515 6 966 2 450 6 820 8
822 2 3 24 6 48 9 96 10 130 15 140 20 5 4 21 9 36 11 15 3 32 9 39 15 6 5 13
6 17 3 3 -3 17 2 31 11 14 10 26 13 26 9 0 -5 4 -4 8 1 5 8 60 43 68 45 1 0
15 -28 32 -62z m-4078 -573 c6 -19 16 -35 21 -35 5 0 9 -4 9 -8 0 -5 66 -123
146 -263 80 -140 150 -263 155 -274 5 -11 25 -45 44 -75 19 -30 34 -61 35 -67
0 -7 4 -13 9 -13 5 0 11 -8 14 -17 4 -10 18 -38 33 -63 30 -52 171 -295 204
-355 12 -22 68 -119 123 -215 55 -96 114 -200 130 -230 17 -30 33 -57 36 -60
3 -3 14 -22 23 -43 l18 -37 -46 -63 c-25 -34 -56 -75 -69 -92 -12 -16 -66 -88
-119 -160 -53 -71 -102 -137 -109 -145 -7 -8 -41 -54 -77 -102 l-64 -88 -89 0
-89 0 23 -37 c13 -21 26 -40 29 -43 4 -3 12 -15 19 -28 11 -20 9 -27 -16 -56
-16 -17 -39 -49 -52 -69 -12 -20 -27 -37 -32 -37 -5 0 -9 -7 -9 -15 0 -8 -4
-15 -8 -15 -4 0 -16 -13 -25 -30 -10 -16 -23 -35 -30 -42 -7 -7 -30 -37 -51
-66 l-38 -53 -73 74 c-39 41 -92 88 -116 104 -42 29 -168 100 -179 101 -3 0
-12 3 -20 6 -8 3 -37 11 -65 19 l-50 14 2 514 c3 1148 7 1538 17 1532 5 -4 6
-1 0 8 -12 19 -13 211 -1 227 6 7 6 12 0 12 -5 0 -9 31 -8 70 0 38 4 70 8 70
4 0 3 9 -3 20 -10 18 -8 20 18 20 16 0 32 3 36 7 3 4 12 8 19 9 7 1 26 8 42
15 17 6 35 13 40 14 6 2 44 23 85 48 41 25 78 46 82 46 3 1 12 -15 18 -34z
m5113 -1280 c73 -5 85 -8 152 -30 141 -48 261 -140 346 -263 16 -24 29 -50 29
-58 0 -7 4 -14 10 -14 5 0 13 -12 16 -27 4 -16 10 -32 14 -38 34 -44 55 -243
37 -350 -14 -85 -55 -188 -104 -262 -42 -64 -148 -172 -189 -193 -16 -8 -31
-17 -34 -20 -12 -14 -152 -70 -161 -65 -5 4 -9 2 -9 -2 0 -5 -8 -10 -17 -10
-10 -1 -36 -5 -58 -8 -57 -8 -220 -4 -220 5 0 1 -9 3 -20 5 -41 7 -65 14 -110
34 -25 11 -45 17 -45 14 0 -4 -10 3 -23 15 -13 12 -27 19 -30 15 -4 -3 -7 -1
-7 5 0 6 -8 13 -19 17 -26 8 -142 122 -178 175 -79 117 -121 257 -117 395 4
158 48 284 144 409 29 38 124 126 142 132 10 3 18 9 18 13 0 12 159 83 170 76
6 -4 10 -2 10 3 0 11 135 36 149 28 5 -4 12 -2 16 4 4 6 11 8 16 5 5 -4 37 -8
72 -10z m-3952 -747 c35 -62 68 -116 73 -120 7 -5 7 -8 1 -8 -7 0 -7 -3 0 -8
6 -4 21 -27 34 -52 14 -25 42 -74 63 -109 21 -34 38 -67 38 -72 0 -5 -138 -9
-320 -9 -176 0 -320 2 -320 4 0 3 54 77 271 366 10 14 35 46 54 73 20 26 38
47 40 47 2 0 31 -51 66 -112z m-552 -782 l80 -119 -102 -151 c-56 -83 -106
-155 -110 -161 -5 -5 -37 -53 -72 -105 l-63 -95 32 -5 c17 -3 33 -3 36 0 8 8
340 6 340 -3 0 -5 5 -5 12 -1 14 9 103 8 118 -1 6 -3 10 -3 10 2 0 4 31 8 70
8 38 0 70 -4 70 -8 0 -5 4 -5 10 -2 8 5 560 8 896 5 40 0 42 -2 73 -57 17 -32
39 -71 49 -88 10 -16 44 -77 77 -135 33 -58 63 -106 67 -108 4 -2 8 -7 8 -12
0 -4 37 -72 81 -150 l82 -142 -23 -47 c-52 -107 -83 -243 -84 -378 -1 -29 -5
-53 -11 -53 -18 0 -50 12 -55 21 -3 5 -15 10 -25 12 -11 2 -48 17 -83 35 -34
17 -63 31 -65 31 -5 0 -201 87 -237 105 -14 8 -42 19 -62 25 -21 7 -38 17 -38
22 0 6 -6 9 -12 7 -7 -1 -27 6 -45 15 -18 9 -39 17 -48 17 -8 0 -15 5 -15 10
0 6 -5 10 -10 10 -6 0 -48 17 -93 39 -46 21 -100 44 -120 52 -20 7 -37 17 -37
21 0 4 -3 7 -7 6 -5 -1 -24 5 -43 14 -19 8 -64 28 -100 43 -36 15 -68 31 -71
37 -3 5 -10 8 -15 7 -5 -1 -40 12 -79 30 -102 48 -159 74 -165 76 -3 0 -26 10
-52 22 -26 12 -76 34 -110 49 -35 16 -65 31 -68 34 -3 3 -11 6 -17 7 -7 2 -43
17 -80 34 -66 30 -91 41 -123 53 -8 3 -22 10 -30 15 -8 5 -34 17 -58 27 -48
21 -47 11 -12 134 24 83 33 242 19 332 -5 29 -20 92 -35 140 l-27 86 27 29
c14 15 29 36 32 46 3 9 9 17 13 17 4 0 25 25 47 57 21 31 43 61 49 67 5 6 33
41 60 78 28 37 53 66 58 65 4 -1 43 -56 86 -121z m-1032 80 c96 -14 212 -64
300 -131 262 -197 342 -562 186 -855 -36 -69 -53 -90 -133 -170 -41 -40 -93
-78 -136 -100 -38 -19 -71 -37 -74 -40 -6 -6 -30 -12 -47 -13 -7 0 -13 -3 -13
-7 0 -3 -8 -6 -17 -7 -10 -1 -31 -4 -48 -8 -37 -9 -206 -14 -219 -7 -6 3 -19
7 -30 8 -49 5 -137 34 -148 49 -4 5 -8 6 -8 2 0 -18 -118 59 -196 129 -35 32
-104 126 -129 173 -89 178 -95 411 -14 587 32 68 90 153 134 194 20 19 44 43
53 53 9 9 23 17 31 17 8 0 12 3 8 6 -3 4 8 14 26 23 18 10 49 27 70 39 20 12
40 22 45 22 4 0 27 7 52 15 25 8 65 17 89 20 25 3 46 7 48 9 4 4 120 -1 170
-8z m2665 -720 c15 10 108 10 108 1 0 -5 5 -5 12 -1 14 9 103 8 118 -1 6 -3
10 -3 10 2 0 9 124 8 147 -1 7 -3 13 -2 13 2 0 4 76 7 170 7 93 0 170 -4 170
-8 0 -5 5 -5 12 -1 14 9 103 8 118 -1 6 -3 10 -3 10 2 0 9 124 8 147 -1 7 -3
13 -1 13 3 0 5 8 8 18 6 9 -2 43 -4 75 -4 l57 -1 0 -170 c0 -112 -4 -170 -10
-170 -6 0 -24 7 -40 15 -17 9 -30 13 -30 10 0 -4 -6 -3 -12 2 -14 8 -35 14
-58 15 -8 0 -19 4 -25 8 -13 9 -73 14 -170 14 -128 0 -211 -18 -330 -70 -22
-10 -43 -17 -47 -16 -5 1 -8 -2 -8 -8 0 -5 -7 -10 -15 -10 -8 0 -15 -4 -15 -9
0 -5 -13 -14 -30 -21 -16 -7 -30 -17 -30 -23 0 -6 -3 -8 -6 -5 -5 6 -21 -8
-95 -79 l-36 -35 -22 35 c-11 19 -21 39 -21 46 0 6 -4 11 -8 11 -4 0 -20 24
-35 53 -16 28 -36 66 -46 82 -10 17 -28 47 -40 68 -12 21 -40 71 -63 110 -22
40 -47 84 -55 99 -8 15 -20 31 -26 35 -7 5 2 10 23 13 19 3 37 2 38 -2 2 -5 8
-5 14 -2z m1011 -441 c41 -8 158 -54 174 -66 7 -6 13 -8 13 -3 0 5 5 1 11 -8
5 -10 15 -18 22 -18 7 0 26 -12 42 -26 17 -14 39 -33 50 -43 38 -30 115 -131
144 -189 99 -198 101 -407 6 -609 -26 -53 -33 -65 -63 -98 -7 -8 -11 -15 -7
-15 4 0 -28 -34 -71 -75 -42 -41 -81 -72 -85 -69 -5 3 -9 0 -9 -5 0 -6 -7 -11
-15 -11 -8 0 -15 -3 -15 -7 0 -18 -154 -76 -235 -89 -35 -6 -189 -5 -215 1
-14 3 -36 8 -50 11 -131 25 -282 126 -389 259 -35 45 -88 161 -107 235 -26
101 -22 306 5 333 5 5 7 15 4 22 -5 16 85 205 98 205 6 0 13 8 16 17 9 23 96
106 148 141 81 56 179 96 265 109 19 3 36 6 38 8 5 5 195 -3 225 -10z"/>
</g>
</svg>
